<svg width="56" height="56" viewBox="0 0 56 56" fill="none" xmlns="http://www.w3.org/2000/svg">
<path d="M14.8008 30.1785V13.1387H23.1893V30.7243C23.1893 33.3428 24.9063 36.0319 28.3025 36.0319C31.657 36.0319 33.376 33.3428 33.376 30.7243V13.1387H41.7623V30.1368C41.7623 36.9292 37.5083 43.6081 28.3025 43.6081C19.0967 43.6081 14.8008 36.9292 14.8008 30.1785Z" fill="white"/>
<path d="M49.9994 2.83096H45.8824L43.1461 3.5848V4.56433H34.1746V3.5292L31.4263 2.46655H29.1994L28.7341 2.2128C28.7494 2.16608 28.7635 2.11839 28.7635 2.06662C28.7635 1.8692 28.6399 1.70196 28.4667 1.63365V0H28.1212V1.63414C27.9494 1.70388 27.8284 1.87013 27.8284 2.06662C27.8284 2.1174 27.842 2.16461 27.8571 2.2104L27.3865 2.46655H25.0551L22.4381 3.56802V4.56433H13.4075V3.58765L10.6716 2.83096H6.55422L3.81836 3.58814V7.51198V31.7638C3.81836 45.1277 14.6908 56 28.0545 56H28.5084C41.8723 56 52.7443 45.1277 52.7443 31.7638V5.07418H52.7357V3.59172L49.9994 2.83096ZM49.2513 31.7638C49.2513 43.2015 39.9458 52.5065 28.5084 52.5065H28.0545C16.6168 52.5065 7.31184 43.2015 7.31184 31.7638V7.90014H49.2513V31.7638Z" fill="white"/>
<path d="M16.6022 41.2302L18.2003 42.8502L17.7813 43.2633L17.2028 42.6769L15.6667 44.1927L15.2256 43.7451L16.7617 42.2303L16.1831 41.6435L16.6022 41.2302Z" fill="white"/>
<path d="M19.7906 43.9439C20.4888 44.4037 20.7107 45.2025 20.2298 45.9336C19.7724 46.6289 18.928 46.7777 18.2296 46.3184C17.5309 45.859 17.309 45.0602 17.7899 44.3291C18.2276 43.663 19.0589 43.4635 19.7906 43.9439ZM18.553 45.8267C18.9894 46.1133 19.418 45.9537 19.6723 45.5672C19.9485 45.1472 19.8378 44.6795 19.4672 44.436C19.0869 44.1859 18.6238 44.2759 18.3475 44.6955C18.0887 45.0892 18.1855 45.5852 18.553 45.8267Z" fill="white"/>
<path d="M21.5758 45.0655L22.1741 45.2692L22.6027 46.6378L23.7334 45.8006L24.2944 45.9921L23.4085 48.5918L22.8143 48.3886L23.3786 46.7325L22.309 47.4995L22.2234 47.4705L21.8446 46.2221L21.2839 47.8675L20.6895 47.6653L21.5758 45.0655Z" fill="white"/>
<path d="M25.0429 46.857C25.0959 46.4365 25.4776 46.1125 26.0225 46.1823C26.3733 46.2268 26.6388 46.379 26.7868 46.5836L26.3924 47.0087C26.286 46.8805 26.2056 46.799 26.0028 46.7731C25.8315 46.7516 25.7206 46.8163 25.705 46.9409C25.647 47.3928 26.7983 47.4278 26.686 48.316C26.6256 48.7905 26.1751 49.0657 25.6489 48.9991C25.2828 48.9529 24.8786 48.7435 24.7832 48.4341L25.1915 48.0548C25.3216 48.2733 25.5478 48.3929 25.7388 48.4176C25.9027 48.4382 26.0062 48.368 26.0225 48.2393C26.075 47.8306 24.9311 47.7369 25.0429 46.857Z" fill="white"/>
<path d="M27.7725 46.3875L28.4 46.3733L28.4276 47.5697L29.2985 46.3527L30.0523 46.3354L29.0494 47.626L30.1971 49.0795L29.4006 49.0977L28.4331 47.8132L28.463 49.1193L27.8352 49.1341L27.7725 46.3875Z" fill="white"/>
<path d="M31.8784 47.2791L30.8545 47.4416L30.9406 47.9843L31.9646 47.8218L31.8784 47.2791Z" fill="white"/>
<path d="M32.9834 45.7607L33.3907 45.645L34.1405 48.2864L33.5743 48.4474L33.0531 46.6091L32.841 46.8691L32.4141 46.485L32.9834 45.7607Z" fill="white"/>
<path d="M35.084 47.2286C34.9266 46.8948 35.0068 46.6054 35.1674 46.4218L35.1631 46.411C34.958 46.3988 34.7114 46.281 34.5662 45.9719C34.3826 45.5818 34.6266 45.1421 35.0914 44.9226C35.556 44.7043 36.0542 44.7956 36.2377 45.1857C36.3515 45.4273 36.3305 45.7232 36.1587 45.9386L36.1634 45.9489C36.4069 45.9036 36.7018 46.016 36.854 46.339C37.0744 46.8076 36.8221 47.2473 36.3039 47.491C35.7858 47.7349 35.2821 47.651 35.084 47.2286ZM35.5822 45.8928C35.7489 45.8142 35.7666 45.6582 35.7152 45.5487C35.6497 45.4105 35.5194 45.3717 35.3382 45.4572C35.1537 45.5439 35.1243 45.6838 35.1791 45.801C35.2307 45.911 35.3622 45.9963 35.5359 45.9143L35.5822 45.8928ZM35.7901 46.4453C35.6305 46.5206 35.5177 46.6775 35.6013 46.855C35.6665 46.9931 35.8156 47.0705 36.0496 46.9607C36.3197 46.8335 36.3249 46.6794 36.2578 46.5459C36.1709 46.3703 36.0032 46.3452 35.8328 46.4252L35.7901 46.4453Z" fill="white"/>
<path d="M36.4883 44.2483L37.9521 43.1909L38.1867 43.5151L38.8072 45.9629L38.2854 46.3403L37.7273 44.0796L36.8334 44.7258L36.4883 44.2483Z" fill="white"/>
<path d="M39.8815 44.2154C39.616 43.9588 39.5887 43.66 39.6735 43.431L39.6649 43.4231C39.4693 43.4848 39.1967 43.4616 38.9513 43.2242C38.6406 42.9244 38.7122 42.4263 39.0697 42.0568C39.4267 41.6873 39.9246 41.5951 40.2352 41.8948C40.4268 42.0798 40.5121 42.3644 40.4283 42.6271L40.4364 42.635C40.6482 42.5063 40.9645 42.5063 41.2214 42.7541C41.5937 43.1142 41.5137 43.615 41.116 44.0271C40.7182 44.4392 40.2174 44.5398 39.8815 44.2154ZM39.8733 42.7895C40.0013 42.6565 39.9625 42.5049 39.8753 42.4205C39.765 42.3139 39.6289 42.3242 39.4899 42.4684C39.3486 42.6153 39.3702 42.7562 39.4636 42.8463C39.5508 42.9309 39.7042 42.9642 39.8379 42.8257L39.8733 42.7895ZM40.2639 43.2321C40.1412 43.3591 40.0919 43.5462 40.2327 43.6821C40.343 43.7884 40.5098 43.8076 40.6899 43.6212C40.8969 43.4063 40.8471 43.2606 40.7374 43.1599C40.5931 43.0265 40.4273 43.0624 40.2965 43.1983L40.2639 43.2321Z" fill="white"/>
</svg>
